<svg data-v-423bf9ae="" xmlns="http://www.w3.org/2000/svg" viewBox="0 0 114 90" class="iconLeft"><!----><!----><!----><g data-v-423bf9ae="" id="4e32c41f-9d9a-4d1c-b987-1956ee143a83" transform="matrix(1.3255270205037066,0,0,1.3255270205037066,-10.142922161112253,-21.22633703442348)" stroke="none" fill="black"><path d="M88.269 65.211c-.13-1.581-1.241-5.791-1.354-10.85-.081-3.711 1.137-2.869 1.287-6.676-.099-2.771-1.007-5.094-3.115-5.094-1.001.003-1.849.708-2.564 1.82-1.712-15.94-15.199-28.356-31.595-28.356-16.423 0-29.933 12.457-31.608 28.439-.847-1.861-1.922-3.145-3.275-3.149-2.112 0-3.017 2.325-3.116 5.094.147 3.809 1.368 2.965 1.284 6.678-.108 5.057-1.224 9.264-1.353 10.848-2.507.527-4.975 6.124-4.975 8.54 0 5.391 4.279 10.373 9.158 10.197 5.729-.206 8.003-4.805 8.299-10.197.142-2.382-.094-4.579-.491-6.519 5.744 8.239 15.275 13.643 26.078 13.643 10.413 0 19.628-5.03 25.426-12.771a25.088 25.088 0 0 0-.566 6.892c.296 5.394 2.57 9.99 8.302 10.198 4.876.176 9.158-4.808 9.158-10.198-.002-2.415-2.474-8.01-4.98-8.539zM48.87 47.94s-1.106 6.846 2.555 6.846c3.661 0 2.169-6.895 2.169-6.895s2.181 7.916-2.063 7.916c-4.242.001-2.661-7.867-2.661-7.867zm-16.289-4.012s2.442-4.438 6.686-4.438c4.243 0 7.072 4.438 7.072 4.438s-2.866-3.054-6.943-3.056c-4.078-.001-6.815 3.056-6.815 3.056zm19.261 27.299c-11.249 0-12.535-12.736-12.535-12.736h24.43c-.001-.001-.646 12.736-11.895 12.736zm9.827-30.355c-4.076-.001-6.813 3.056-6.813 3.056s2.441-4.438 6.685-4.438c4.242 0 7.072 4.438 7.072 4.438s-2.867-3.054-6.944-3.056z"></path></g><!----></svg>